font.ufo
<glyph name="Alpha" format="1">
  <advance width="584"/>
  <outline>
    <component base="A"/>
    <contour>
      <point x="288" y="670" type="move" name="aboveUC"/>
    </contour>
    <contour>
      <point x="288" y="-20" type="move" name="belowLC"/>
    </contour>
  </outline>
</glyph>
<glyph name="Dhook.sc" format="1">
  <advance width="738"/>
  <outline>
    <contour>
      <point x="112" y="243" type="curve"/>
      <point x="165" y="315" type="line"/>
      <point x="151" y="325"/>
      <point x="141" y="336"/>
      <point x="141" y="359" type="curve" smooth="yes"/>
      <point x="141" y="380"/>
      <point x="158" y="399"/>
      <point x="188" y="399" type="curve" smooth="yes"/>
      <point x="352" y="399" type="line"/>
      <point x="435" y="532" type="line"/>
      <point x="220" y="532" type="line" smooth="yes"/>
      <point x="107" y="532"/>
      <point x="34" y="469"/>
      <point x="34" y="373" type="curve" smooth="yes"/>
      <point x="34" y="310"/>
      <point x="60" y="266"/>
    </contour>
    <component base="D.sc" xOffset="148"/>
    <contour>
      <point x="449" y="564" type="move" name="aboveUC"/>
    </contour>
    <contour>
      <point x="450" y="-22" type="move" name="belowLC"/>
    </contour>
  </outline>
</glyph>
<glyph name="Eopen.sc" format="1">
  <advance width="506"/>
  <outline>
    <contour>
      <point x="264" y="-12" type="curve" smooth="yes"/>
      <point x="332" y="-12"/>
      <point x="412" y="8"/>
      <point x="474" y="60" type="curve"/>
      <point x="396" y="172" type="line"/>
      <point x="357" y="142"/>
      <point x="305" y="118"/>
      <point x="264" y="118" type="curve" smooth="yes"/>
      <point x="222" y="118"/>
      <point x="196" y="136"/>
      <point x="196" y="166" type="curve" smooth="yes"/>
      <point x="196" y="200"/>
      <point x="214" y="218"/>
      <point x="260" y="218" type="curve" smooth="yes"/>
      <point x="342" y="218" type="line"/>
      <point x="342" y="324" type="line"/>
      <point x="276" y="324" type="line" smooth="yes"/>
      <point x="236" y="324"/>
      <point x="220" y="340"/>
      <point x="220" y="372" type="curve" smooth="yes"/>
      <point x="220" y="398"/>
      <point x="244" y="414"/>
      <point x="276" y="414" type="curve" smooth="yes"/>
      <point x="307" y="414"/>
      <point x="342" y="402"/>
      <point x="382" y="368" type="curve"/>
      <point x="462" y="476" type="line"/>
      <point x="404" y="522"/>
      <point x="338" y="544"/>
      <point x="270" y="544" type="curve" smooth="yes"/>
      <point x="122" y="544"/>
      <point x="54" y="484"/>
      <point x="54" y="392" type="curve" smooth="yes"/>
      <point x="54" y="346"/>
      <point x="76" y="304"/>
      <point x="118" y="282" type="curve"/>
      <point x="118" y="278" type="line"/>
      <point x="68" y="262"/>
      <point x="30" y="216"/>
      <point x="30" y="160" type="curve" smooth="yes"/>
      <point x="30" y="46"/>
      <point x="130" y="-12"/>
    </contour>
    <contour>
      <point x="247" y="564" type="move" name="aboveUC"/>
    </contour>
    <contour>
      <point x="247" y="0" type="move" name="baseLC"/>
    </contour>
    <contour>
      <point x="247" y="-22" type="move" name="belowLC"/>
    </contour>
  </outline>
</glyph>
<glyph name="Epsilon" format="1">
  <advance width="556"/>
  <outline>
    <component base="E"/>
    <contour>
      <point x="290" y="670" type="move" name="aboveUC"/>
    </contour>
  </outline>
</glyph>
<glyph name="Eta" format="1">
  <advance width="682"/>
  <outline>
    <component base="H"/>
    <contour>
      <point x="340" y="670" type="move" name="aboveUC"/>
    </contour>
    <contour>
      <point x="340" y="-20" type="move" name="belowLC"/>
    </contour>
  </outline>
</glyph>
<glyph name="Eturned" format="1">
  <advance width="556"/>
  <outline>
    <component base="E" xScale="-1" xOffset="556"/>
    <contour>
      <point x="272" y="672" type="move" name="aboveUC"/>
    </contour>
    <contour>
      <point x="276" y="-22" type="move" name="belowLC"/>
    </contour>
  </outline>
</glyph>
<glyph name="Iota" format="1">
  <advance width="316"/>
  <outline>
    <component base="I"/>
    <contour>
      <point x="158" y="670" type="move" name="aboveUC"/>
    </contour>
  </outline>
</glyph>
<glyph name="Iota.sc" format="1">
  <advance width="316"/>
  <outline>
    <component base="I.sc"/>
    <contour>
      <point x="158" y="564" type="move" name="aboveLC"/>
    </contour>
    <contour>
      <point x="158" y="-20" type="move" name="belowLC"/>
    </contour>
  </outline>
</glyph>
<glyph name="Khook" format="1">
  <advance width="628"/>
  <outline>
    <contour>
      <point x="483" y="491" type="line" smooth="yes"/>
      <point x="493" y="504"/>
      <point x="504" y="510"/>
      <point x="516" y="510" type="curve" smooth="yes"/>
      <point x="535" y="510"/>
      <point x="552" y="493"/>
      <point x="561" y="477" type="curve"/>
      <point x="661" y="560" type="line"/>
      <point x="636" y="595"/>
      <point x="573" y="662"/>
      <point x="498" y="662" type="curve" smooth="yes"/>
      <point x="450" y="662"/>
      <point x="409" y="646"/>
      <point x="357" y="569" type="curve" smooth="yes"/>
      <point x="248" y="408" type="line"/>
      <point x="244" y="408" type="line"/>
      <point x="244" y="650" type="line"/>
      <point x="72" y="650" type="line"/>
      <point x="72" y="0" type="line"/>
      <point x="244" y="0" type="line"/>
      <point x="244" y="162" type="line"/>
      <point x="306" y="250" type="line"/>
      <point x="450" y="0" type="line"/>
      <point x="638" y="0" type="line"/>
      <point x="406" y="386" type="line"/>
    </contour>
  </outline>
</glyph>
<glyph name="Kturned" format="1">
  <advance width="628"/>
  <outline>
    <component base="K" xScale="-1" xOffset="628"/>
    <contour>
      <point x="240" y="-22" type="move" name="aboveUC"/>
    </contour>
    <contour>
      <point x="252" y="672" type="move" name="belowLC"/>
    </contour>
  </outline>
</glyph>
<glyph name="Nlegrightlong" format="1">
  <advance width="678"/>
  <outline>
    <contour>
      <point x="458" y="-188" type="line"/>
      <point x="634" y="-188" type="line"/>
      <point x="634" y="330" type="line" smooth="yes"/>
      <point x="634" y="572"/>
      <point x="538" y="662"/>
      <point x="411" y="662" type="curve" smooth="yes"/>
      <point x="346" y="662"/>
      <point x="288" y="638"/>
      <point x="238" y="584" type="curve"/>
      <point x="238" y="650" type="line"/>
      <point x="72" y="650" type="line"/>
      <point x="72" y="0" type="line"/>
      <point x="244" y="0" type="line"/>
      <point x="244" y="438" type="line"/>
      <point x="274" y="491"/>
      <point x="322" y="514"/>
      <point x="358" y="514" type="curve" smooth="yes"/>
      <point x="422" y="514"/>
      <point x="458" y="461"/>
      <point x="458" y="330" type="curve" smooth="yes"/>
    </contour>
    <contour>
      <point x="378" y="672" type="move" name="aboveUC"/>
    </contour>
  </outline>
</glyph>
<glyph name="Phook.sc" format="1">
  <advance width="712"/>
  <outline>
    <contour>
      <point x="112" y="243" type="curve"/>
      <point x="165" y="315" type="line"/>
      <point x="151" y="325"/>
      <point x="141" y="336"/>
      <point x="141" y="359" type="curve" smooth="yes"/>
      <point x="141" y="380"/>
      <point x="158" y="399"/>
      <point x="188" y="399" type="curve" smooth="yes"/>
      <point x="352" y="399" type="line"/>
      <point x="435" y="532" type="line"/>
      <point x="220" y="532" type="line" smooth="yes"/>
      <point x="107" y="532"/>
      <point x="34" y="469"/>
      <point x="34" y="373" type="curve" smooth="yes"/>
      <point x="34" y="310"/>
      <point x="60" y="266"/>
    </contour>
    <component base="P.sc" xOffset="148"/>
    <contour>
      <point x="454" y="564" type="move" name="aboveUC"/>
    </contour>
    <contour>
      <point x="318" y="-22" type="move" name="belowLC"/>
    </contour>
  </outline>
</glyph>
<glyph name="Tturned" format="1">
  <advance width="564"/>
  <outline>
    <component base="T" xScale="-1" yScale="-1" xOffset="564" yOffset="650"/>
    <contour>
      <point x="282" y="672" type="move" name="aboveUC"/>
    </contour>
    <contour>
      <point x="282" y="0" type="move" name="baseLC"/>
    </contour>
    <contour>
      <point x="282" y="-22" type="move" name="belowLC"/>
    </contour>
  </outline>
</glyph>
<glyph name="Ubar" format="1">
  <advance width="720"/>
  <outline>
    <contour>
      <point x="22" y="316" type="line"/>
      <point x="698" y="316" type="line"/>
      <point x="698" y="396" type="line"/>
      <point x="98" y="396" type="line"/>
      <point x="22" y="390" type="line"/>
    </contour>
    <component base="U" xOffset="24"/>
  </outline>
</glyph>
<glyph name="Upsilon" format="1">
  <advance width="544"/>
  <outline>
    <component base="Y"/>
    <contour>
      <point x="272" y="670" type="move" name="aboveUC"/>
    </contour>
  </outline>
</glyph>
<glyph name="Whook" format="1">
  <advance width="924"/>
  <outline>
    <contour>
      <point x="124" y="0" type="line"/>
      <point x="338" y="0" type="line"/>
      <point x="386" y="258" type="line"/>
      <point x="396" y="308"/>
      <point x="403" y="362"/>
      <point x="410" y="410" type="curve"/>
      <point x="414" y="410" type="line"/>
      <point x="420" y="362"/>
      <point x="428" y="308"/>
      <point x="438" y="258" type="curve"/>
      <point x="488" y="0" type="line"/>
      <point x="706" y="0" type="line"/>
      <point x="784" y="459" type="line" smooth="yes"/>
      <point x="791" y="503"/>
      <point x="805" y="510"/>
      <point x="820" y="510" type="curve" smooth="yes"/>
      <point x="837" y="510"/>
      <point x="852" y="493"/>
      <point x="859" y="477" type="curve"/>
      <point x="959" y="560" type="line"/>
      <point x="934" y="595"/>
      <point x="870" y="662"/>
      <point x="796" y="662" type="curve" smooth="yes"/>
      <point x="728" y="662"/>
      <point x="658" y="631"/>
      <point x="634" y="486" type="curve" smooth="yes"/>
      <point x="614" y="366" type="line"/>
      <point x="607" y="300"/>
      <point x="599" y="231"/>
      <point x="592" y="162" type="curve"/>
      <point x="588" y="162" type="line"/>
      <point x="576" y="231"/>
      <point x="564" y="301"/>
      <point x="552" y="366" type="curve"/>
      <point x="490" y="650" type="line"/>
      <point x="346" y="650" type="line"/>
      <point x="284" y="366" type="line"/>
      <point x="272" y="299"/>
      <point x="260" y="230"/>
      <point x="248" y="162" type="curve"/>
      <point x="244" y="162" type="line"/>
      <point x="237" y="230"/>
      <point x="229" y="298"/>
      <point x="222" y="366" type="curve"/>
      <point x="186" y="650" type="line"/>
      <point x="10" y="650" type="line"/>
    </contour>
  </outline>
</glyph>
<glyph name="Yhook" format="1">
  <advance width="613"/>
  <outline>
    <contour>
      <point x="186" y="0" type="line"/>
      <point x="358" y="0" type="line"/>
      <point x="358" y="224" type="line"/>
      <point x="476" y="482" type="line" smooth="yes"/>
      <point x="483" y="498"/>
      <point x="493" y="510"/>
      <point x="508" y="510" type="curve" smooth="yes"/>
      <point x="525" y="510"/>
      <point x="540" y="493"/>
      <point x="547" y="477" type="curve"/>
      <point x="647" y="560" type="line"/>
      <point x="622" y="595"/>
      <point x="558" y="662"/>
      <point x="484" y="662" type="curve" smooth="yes"/>
      <point x="416" y="662"/>
      <point x="363" y="620"/>
      <point x="326" y="514" type="curve" smooth="yes"/>
      <point x="275" y="369" type="line"/>
      <point x="271" y="369" type="line"/>
      <point x="254" y="420"/>
      <point x="238" y="465"/>
      <point x="222" y="514" type="curve"/>
      <point x="174" y="650" type="line"/>
      <point x="-10" y="650" type="line"/>
      <point x="186" y="224" type="line"/>
    </contour>
  </outline>
</glyph>
<glyph name="aring.a" format="1">
  <advance width="580"/>
  <outline>
    <component base="ringcmb" xOffset="310"/>
    <contour>
      <point x="414" y="0" type="move" name="ogonekLC"/>
    </contour>
  </outline>
</glyph>
<glyph name="bsmall" format="1">
  <advance width="536"/>
  <outline>
    <component base="ve"/>
    <contour>
      <point x="268" y="520" type="move" name="aboveLC"/>
    </contour>
    <contour>
      <point x="280" y="-20" type="move" name="belowLC"/>
    </contour>
  </outline>
</glyph>
<glyph name="chilatin" format="1">
  <advance width="563"/>
  <outline>
    <contour>
      <point x="388" y="138" type="curve" smooth="yes"/>
      <point x="356" y="227" type="line"/>
      <point x="256" y="90" type="line"/>
      <point x="286" y="-3" type="line" smooth="yes"/>
      <point x="332" y="-146"/>
      <point x="397" y="-176"/>
      <point x="466" y="-176" type="curve" smooth="yes"/>
      <point x="506" y="-176"/>
      <point x="553" y="-166"/>
      <point x="575" y="-148" type="curve"/>
      <point x="527" y="-24" type="line"/>
      <point x="517" y="-32"/>
      <point x="500" y="-38"/>
      <point x="483" y="-38" type="curve" smooth="yes"/>
      <point x="462" y="-38"/>
      <point x="438" y="-2"/>
    </contour>
    <contour>
      <point x="197" y="-176" type="line"/>
      <point x="269" y="40" type="line"/>
      <point x="273" y="40" type="line"/>
      <point x="379" y="150" type="line"/>
      <point x="530" y="500" type="line"/>
      <point x="352" y="500" type="line"/>
      <point x="294" y="296" type="line"/>
      <point x="290" y="296" type="line"/>
      <point x="186" y="176" type="line"/>
      <point x="14" y="-176" type="line"/>
    </contour>
    <contour>
      <point x="175" y="198" type="curve" smooth="yes"/>
      <point x="207" y="109" type="line"/>
      <point x="307" y="246" type="line"/>
      <point x="277" y="339" type="line" smooth="yes"/>
      <point x="231" y="482"/>
      <point x="166" y="512"/>
      <point x="97" y="512" type="curve" smooth="yes"/>
      <point x="57" y="512"/>
      <point x="10" y="502"/>
      <point x="-12" y="484" type="curve"/>
      <point x="36" y="360" type="line"/>
      <point x="46" y="368"/>
      <point x="63" y="374"/>
      <point x="80" y="374" type="curve" smooth="yes"/>
      <point x="101" y="374"/>
      <point x="125" y="338"/>
    </contour>
  </outline>
</glyph>
<glyph name="circumflexacutecmb" format="1">
  <outline>
    <contour>
      <point x="-104" y="564" type="line"/>
      <point x="-2" y="626" type="line"/>
      <point x="2" y="626" type="line"/>
      <point x="104" y="564" type="line"/>
      <point x="158" y="624" type="line"/>
      <point x="68" y="716" type="line"/>
      <point x="-68" y="716" type="line"/>
      <point x="-158" y="624" type="line"/>
    </contour>
    <contour>
      <point x="192" y="638" type="line"/>
      <point x="294" y="760" type="line"/>
      <point x="204" y="818" type="line"/>
      <point x="128" y="688" type="line"/>
    </contour>
    <contour>
      <point x="0" y="520" type="move" name="_aboveLC"/>
    </contour>
  </outline>
</glyph>
<glyph name="er" format="1">
  <advance width="580"/>
  <outline>
    <component base="p"/>
    <contour>
      <point x="310" y="520" type="move" name="aboveLC"/>
    </contour>
  </outline>
</glyph>
<glyph name="es" format="1">
  <advance width="472"/>
  <outline>
    <component base="c"/>
    <contour>
      <point x="280" y="520" type="move" name="aboveLC"/>
    </contour>
  </outline>
</glyph>
<glyph name="eshcurl" format="1">
  <advance width="430"/>
  <outline>
    <contour>
      <point x="371" y="37" type="curve" smooth="yes"/>
      <point x="372" y="500" type="line" smooth="yes"/>
      <point x="372" y="554"/>
      <point x="389" y="574"/>
      <point x="432" y="574" type="curve" smooth="yes"/>
      <point x="441" y="574"/>
      <point x="448" y="572"/>
      <point x="458" y="568" type="curve"/>
      <point x="488" y="694" type="line"/>
      <point x="468" y="702"/>
      <point x="445" y="708"/>
      <point x="404" y="708" type="curve" smooth="yes"/>
      <point x="246" y="708"/>
      <point x="200" y="606"/>
      <point x="200" y="494" type="curve" smooth="yes"/>
      <point x="200" y="42" type="line" smooth="yes"/>
      <point x="200" y="-11"/>
      <point x="166" y="-65"/>
      <point x="115" y="-65" type="curve" smooth="yes"/>
      <point x="96" y="-65"/>
      <point x="78" y="-49"/>
      <point x="78" y="-31" type="curve" smooth="yes"/>
      <point x="78" y="-17"/>
      <point x="90" y="1"/>
      <point x="116" y="1" type="curve" smooth="yes"/>
      <point x="160" y="1"/>
      <point x="220" y="-72"/>
      <point x="273" y="-189" type="curve"/>
      <point x="358" y="-145" type="line"/>
      <point x="284" y="21"/>
      <point x="194" y="73"/>
      <point x="110" y="73" type="curve" smooth="yes"/>
      <point x="29" y="73"/>
      <point x="-26" y="26"/>
      <point x="-26" y="-51" type="curve" smooth="yes"/>
      <point x="-26" y="-131"/>
      <point x="33" y="-195"/>
      <point x="138" y="-195" type="curve" smooth="yes"/>
      <point x="272" y="-195"/>
      <point x="371" y="-89"/>
    </contour>
  </outline>
</glyph>
<glyph name="khook" format="1">
  <advance width="550"/>
  <outline>
    <contour>
      <point x="58" y="0" type="line"/>
      <point x="226" y="0" type="line"/>
      <point x="226" y="120" type="line"/>
      <point x="278" y="178" type="line"/>
      <point x="378" y="0" type="line"/>
      <point x="564" y="0" type="line"/>
      <point x="376" y="292" type="line"/>
      <point x="554" y="500" type="line"/>
      <point x="368" y="500" type="line"/>
      <point x="230" y="326" type="line"/>
      <point x="226" y="326" type="line"/>
      <point x="226" y="471" type="line" smooth="yes"/>
      <point x="226" y="553"/>
      <point x="258" y="574"/>
      <point x="302" y="574" type="curve" smooth="yes"/>
      <point x="318" y="574"/>
      <point x="336" y="570"/>
      <point x="352" y="564" type="curve"/>
      <point x="382" y="690" type="line"/>
      <point x="360" y="698"/>
      <point x="322" y="708"/>
      <point x="276" y="708" type="curve" smooth="yes"/>
      <point x="114" y="708"/>
      <point x="58" y="603"/>
      <point x="58" y="486" type="curve" smooth="yes"/>
    </contour>
    <contour>
      <point x="277" y="730" type="move" name="aboveLC"/>
    </contour>
    <contour>
      <point x="304" y="-22" type="move" name="belowLC"/>
    </contour>
  </outline>
</glyph>
<glyph name="kturned" format="1">
  <advance width="568"/>
  <outline>
    <contour>
      <point x="342" y="-176" type="line"/>
      <point x="510" y="-176" type="line"/>
      <point x="510" y="500" type="line"/>
      <point x="342" y="500" type="line"/>
      <point x="342" y="326" type="line"/>
      <point x="338" y="326" type="line"/>
      <point x="200" y="500" type="line"/>
      <point x="14" y="500" type="line"/>
      <point x="192" y="292" type="line"/>
      <point x="4" y="0" type="line"/>
      <point x="190" y="0" type="line"/>
      <point x="290" y="178" type="line"/>
      <point x="342" y="120" type="line"/>
    </contour>
    <contour>
      <point x="284" y="520" type="move" name="aboveLC"/>
    </contour>
    <contour>
      <point x="284" y="-20" type="move" name="belowLC"/>
    </contour>
  </outline>
</glyph>
<glyph name="lezh" format="1">
  <advance width="664"/>
  <outline>
    <contour>
      <point x="119" y="366" type="line"/>
      <point x="354" y="366" type="line"/>
      <point x="354" y="500" type="line"/>
      <point x="119" y="500" type="line"/>
    </contour>
    <component base="l.a"/>
    <component base="ezh" xOffset="190"/>
    <contour>
      <point x="144" y="730" type="move" name="aboveUC"/>
    </contour>
    <contour>
      <point x="144" y="-20" type="move" name="belowLC"/>
    </contour>
  </outline>
</glyph>
<glyph name="mturned" format="1">
  <advance width="868"/>
  <outline>
    <component base="m" xScale="-1" yScale="-1" xOffset="872" yOffset="500"/>
    <contour>
      <point x="446" y="520" type="move" name="aboveLC"/>
    </contour>
    <contour>
      <point x="444" y="-20" type="move" name="belowLC"/>
    </contour>
  </outline>
</glyph>
<glyph name="nlegrightlong" format="1">
  <advance width="582"/>
  <outline>
    <contour>
      <point x="58" y="0" type="line"/>
      <point x="230" y="0" type="line"/>
      <point x="230" y="328" type="line"/>
      <point x="256" y="352"/>
      <point x="274" y="366"/>
      <point x="306" y="366" type="curve" smooth="yes"/>
      <point x="340" y="366"/>
      <point x="356" y="350"/>
      <point x="356" y="286" type="curve" smooth="yes"/>
      <point x="356" y="-176" type="line"/>
      <point x="528" y="-176" type="line"/>
      <point x="528" y="308" type="line" smooth="yes"/>
      <point x="528" y="432"/>
      <point x="482" y="512"/>
      <point x="372" y="512" type="curve" smooth="yes"/>
      <point x="304" y="512"/>
      <point x="254" y="478"/>
      <point x="214" y="440" type="curve"/>
      <point x="210" y="440" type="line"/>
      <point x="198" y="500" type="line"/>
      <point x="58" y="500" type="line"/>
    </contour>
    <contour>
      <point x="314" y="522" type="move" name="aboveLC"/>
    </contour>
    <contour>
      <point x="296" y="-218" type="move" name="belowLC"/>
    </contour>
  </outline>
</glyph>
<glyph name="rstroke" format="1">
  <advance width="440"/>
  <outline>
    <contour>
      <point x="14" y="140" type="line"/>
      <point x="366" y="140" type="line"/>
      <point x="366" y="220" type="line"/>
      <point x="90" y="220" type="line"/>
      <point x="14" y="214" type="line"/>
    </contour>
    <component base="r" xOffset="22"/>
  </outline>
</glyph>
<glyph name="thook" format="1">
  <advance width="400"/>
  <outline>
    <contour>
      <point x="80" y="472" type="line"/>
      <point x="252" y="472" type="line"/>
      <point x="252" y="522" type="line" smooth="yes"/>
      <point x="252" y="561"/>
      <point x="271" y="574"/>
      <point x="302" y="574" type="curve" smooth="yes"/>
      <point x="307" y="574"/>
      <point x="311" y="574"/>
      <point x="316" y="572" type="curve"/>
      <point x="346" y="698" type="line"/>
      <point x="330" y="704"/>
      <point x="302" y="708"/>
      <point x="268" y="708" type="curve" smooth="yes"/>
      <point x="128" y="708"/>
      <point x="80" y="618"/>
      <point x="80" y="516" type="curve" smooth="yes"/>
    </contour>
  </outline>
</glyph>
<glyph name="wturned" format="1">
  <advance width="798"/>
  <outline>
    <component base="w" xScale="-1" yScale="-1" xOffset="798" yOffset="500"/>
    <contour>
      <point x="400" y="520" type="move" name="aboveLC"/>
    </contour>
    <contour>
      <point x="400" y="-20" type="move" name="belowLC"/>
    </contour>
  </outline>
</glyph>
